<svg width="1.3229mm" height="1.3229mm" version="1.1" viewBox="0 0 1.3229 1.3229" xmlns="http://www.w3.org/2000/svg">
 <circle cx=".66141" cy=".65912" r=".66146" fill="#00e0d6" stop-color="#000000" stroke-width=".013889"/>
 <g transform="scale(.74528 1.3418)" stroke="#000000" stroke-width=".0088837" aria-label="MAU !">
  <path d="m0.59732 0.26243q0.00379 0.007107 0.004264 0.012793 9.4761e-4 0.005686 9.4761e-4 0.016583v0.26296q0 0.032692-0.018004 0.038378-0.009002 0.002843-0.022742 0.002843-0.01374 0-0.021795-0.002369-0.008055-0.002369-0.012319-0.005686-0.004264-0.003317-0.006633-0.009476-0.002369-0.008055-0.002369-0.024638v-0.15872q-0.011845 0.014688-0.034588 0.046906-0.022742 0.031745-0.028902 0.0398-0.006159 0.008055-0.008528 0.011371-0.002369 0.002843-0.011845 0.008528-0.009002 0.005212-0.0199 0.005212-0.010424 0-0.019426-0.004738-0.008528-0.005212-0.012319-0.00995l-0.00379-0.005212q-0.009476-0.011845-0.03743-0.050223-0.027954-0.038852-0.030323-0.041695v0.15967q0 0.010898-9.476e-4 0.016583-4.738e-4 0.005212-0.004264 0.011845-0.007107 0.012793-0.036957 0.012793-0.028902 0-0.036009-0.012793-0.00379-0.006633-0.004738-0.012319-4.7381e-4 -0.005686-4.7381e-4 -0.017057v-0.26296q0-0.010898 4.7381e-4 -0.016109 9.476e-4 -0.005686 0.004738-0.012793 0.007107-0.012319 0.036957-0.012319 0.012793 0 0.021795 0.003317 0.009476 0.002843 0.012319 0.006159l0.002843 0.002843 0.10755 0.14119q0.080546-0.10661 0.10755-0.14072 0.008055-0.012793 0.037904-0.012793 0.030323 0 0.036957 0.012793z"/>
  <path d="m0.84085 0.2738 0.12793 0.26438q0.008055 0.016109 0.008055 0.024164 0 0.017057-0.027481 0.030797-0.016109 0.008055-0.025585 0.008055-0.009002 0-0.015162-0.004264-0.005686-0.004264-0.008528-0.009002-0.002369-0.004738-0.007107-0.014214l-0.024639-0.051172h-0.13124l-0.024638 0.051171q-0.004738 0.009476-0.007581 0.01374-0.002369 0.004264-0.008528 0.009002-0.005686 0.004264-0.015162 0.004264-0.009002 0-0.025112-0.008055-0.027481-0.013266-0.027481-0.030323 0-0.008055 0.008055-0.024164l0.12793-0.26485q0.005212-0.010898 0.015636-0.017531 0.010898-0.006633 0.022743-0.006633 0.025585 0 0.037904 0.024638zm-0.038378 0.11371-0.031271 0.064911h0.063016z"/>
  <path d="m1.2062 0.26196q0.00474-0.007581 0.01374-0.010424 9e-3 -0.002843 0.022269-0.002843 0.01374 0 0.021795 0.002369 0.00805 0.002369 0.012319 0.005686 0.00426 0.003317 0.00616 0.00995 0.00284 0.008055 0.00284 0.024638v0.14309q0 0.062542-0.038852 0.11371-0.018952 0.024164-0.048802 0.039326-0.02985 0.014688-0.066332 0.014688-0.036009 0-0.065859-0.015162-0.029373-0.015162-0.047852-0.0398-0.038378-0.050223-0.038378-0.11371v-0.14261q0-0.011371 4.738e-4 -0.016583 9.4761e-4 -0.005686 0.004738-0.012793 0.00379-0.007107 0.012793-0.00995 0.009002-0.002843 0.024164-0.002843t0.024164 0.002843q9e-3 0.002843 0.012319 0.00995 0.00569 0.010898 0.00569 0.02985v0.14214q0 0.028902 0.014214 0.054961 0.00711 0.013266 0.021321 0.021321 0.014214 0.008055 0.03364 0.008055 0.034588 0 0.051645-0.025585t0.017057-0.059225v-0.14498q0-0.018478 0.00474-0.026059z"/>
  <path d="m1.4478 0.52444q0.00474-0.009476 0.014214-0.012793 0.00995-0.003317 0.030323-0.003317 0.020847 0 0.02985 0.009002 0.00948 0.009002 0.00948 0.028428v0.007581q0 0.011371-9.476e-4 0.017057-4.738e-4 0.005212-0.00426 0.012793-0.00758 0.01374-0.036483 0.01374-0.028428 0-0.037904-0.009002-9e-3 -0.009476-9e-3 -0.036009 0-0.018478 0.00474-0.027481zm0.06349-0.055435q-9e-3 0.002369-0.024164 0.002369-0.015162 0-0.024164-0.002369-9e-3 -0.002369-0.012793-0.008528-0.00332-0.006159-0.00426-0.010898-4.738e-4 -0.004738-4.738e-4 -0.014688v-0.1502q0-0.00995 4.738e-4 -0.014688 9.476e-4 -0.005212 0.00474-0.011371 0.00379-0.006159 0.012793-0.008528 9e-3 -0.002843 0.024164-0.002843 0.015162 0 0.024164 0.002843 9e-3 0.002369 0.012319 0.009002 0.00379 0.006159 0.00426 0.011371 9.476e-4 0.004738 9.476e-4 0.014688v0.1502q0 0.00995-9.476e-4 0.014688-4.738e-4 0.004738-0.00426 0.010898-0.00379 0.005686-0.012793 0.008055z"/>
 </g>
 <g fill="#ff0031" stroke-width=".0036748" aria-label="tap disini.">
  <path d="m0.32517 1.0491q-0.012058 0-0.017704-0.0066-0.00555-0.0067-0.00555-0.019714v-0.1024h0.01378v0.10259q0 0.00641 0.002871 0.00986t0.008517 0.00345h0.008421v0.012823zm-0.033494-0.099812h0.043829v0.012345h-0.043829z"/>
  <path d="m0.40987 0.98061q0-0.009953-0.005455-0.015407-0.005359-0.00555-0.015216-0.00555-0.007177 0-0.012536 0.003445-0.005263 0.003349-0.007847 0.00957l-0.011675-0.003349q0.00268-0.01024 0.011005-0.015886 0.008421-0.005742 0.020958-0.005742 0.010814 0 0.01847 0.003924 0.007656 0.003828 0.011579 0.011101 0.004019 0.007177 0.004019 0.017513v0.068424h-0.013302zm-0.025073 0.069476q-0.01512 0-0.023159-0.00746-0.007943-0.00746-0.007943-0.021723 0-0.015503 0.008134-0.023446 0.00823-0.008039 0.023924-0.008039h0.024977l0.00134 0.011292h-0.026221q-0.009378 0-0.014259 0.00517-0.004785 0.00507-0.004785 0.015024 0 0.00861 0.005263 0.013206 0.005263 0.0045 0.015312 0.0045 0.01091 0 0.016651-0.00373 0.005838-0.00383 0.005838-0.011101l0.00201 0.010527q-0.001435 0.00507-0.005072 0.00871-0.003541 0.00354-0.009091 0.00536-0.00555 0.00172-0.012919 0.00172z"/>
  <path d="m0.44834 0.94932h0.01378v0.13972h-0.01378zm0.039523 0.10077q-0.010048 0-0.01713-0.00421-0.007082-0.00431-0.009953-0.012823l0.00134-0.0178q0 0.00651 0.002392 0.011771 0.002488 0.00517 0.007082 0.00823 0.004689 0.00297 0.011005 0.00297 0.010048 0 0.015599-0.00632 0.00555-0.00641 0.00555-0.017895v-0.030145q0-0.011579-0.00555-0.017895-0.00555-0.006412-0.015599-0.006412-0.006316 0-0.011005 0.002967-0.004593 0.002967-0.007082 0.008134-0.002392 0.005072-0.002392 0.011388l-0.00201-0.016173q0.004019-0.008996 0.011579-0.013589 0.00756-0.004593 0.01713-0.004593 0.008996 0 0.015312 0.004306 0.006412 0.004211 0.009761 0.012249 0.003349 0.008039 0.003349 0.019522v0.03024q0 0.011388-0.003445 0.019522-0.003445 0.00804-0.010048 0.012345-0.006603 0.00421-0.015886 0.00421z"/>
  <path d="m0.63897 0.90951h0.01378v0.13914h-0.01378zm-0.025743 0.14077q-0.009283 0-0.015886-0.00411-0.006603-0.00412-0.010048-0.011867-0.003445-0.00785-0.003445-0.018852v-0.03225q0-0.011197 0.003349-0.01914 0.003445-0.008039 0.009953-0.012154 0.006507-0.004211 0.015599-0.004211 0.009283 0 0.016556 0.004498 0.007273 0.004402 0.011675 0.013398l-0.00201 0.016268q0-0.006316-0.002392-0.011292-0.002392-0.005072-0.007082-0.007943-0.004593-0.002967-0.011005-0.002967-0.009953 0-0.015407 0.00622-0.005455 0.00622-0.005455 0.017513v0.032059q0 0.010814 0.005455 0.016843 0.005455 0.00603 0.015407 0.00603 0.006316 0 0.01091-0.00297 0.004689-0.00297 0.007082-0.00794 0.002488-0.00507 0.002488-0.011197l0.00134 0.016843q-0.003254 0.00861-0.01024 0.012919-0.006986 0.00431-0.016843 0.00431z"/>
  <path d="m0.68031 0.91238h0.01378v0.01378h-0.01378zm0 0.036939h0.01378v0.099334h-0.01378z"/>
  <path d="m0.74998 1.0501q-0.009187 0-0.016364-0.00249-0.007082-0.00258-0.011962-0.00766-0.004785-0.00507-0.007177-0.012536l0.011388-0.00469q0.003924 0.00766 0.010048 0.011675 0.006125 0.00392 0.014068 0.00392 0.011292 0 0.017321-0.00459 0.006029-0.00459 0.006029-0.013302 0-0.00555-0.002967-0.00861t-0.00756-0.0045-0.012249-0.00268q-5.7419e-4 -9.57e-5 -0.001148-1.914e-4 -4.7849e-4 -9.57e-5 -0.001053-2.871e-4 -2.8709e-4 0-5.7418e-4 0-2.871e-4 -9.57e-5 -5.7419e-4 -9.57e-5 -0.009283-0.00163-0.015407-0.00383-0.006125-0.002297-0.010335-0.007751-0.004211-0.00555-0.004211-0.015407 0-0.00957 0.003828-0.016077 0.003924-0.006507 0.011388-0.009857 0.00756-0.003349 0.01847-0.003349 0.008134 0 0.01445 0.002201 0.006316 0.002201 0.010718 0.006699 0.004498 0.004498 0.00689 0.011197l-0.011388 0.004689q-0.003445-0.006316-0.008804-0.009665t-0.012154-0.003349q-0.010048 0-0.015407 0.004402-0.005263 0.004306-0.005263 0.012728 0 0.00555 0.003158 0.008613 0.003158 0.003062 0.007847 0.004402 0.004785 0.00134 0.012919 0.002584 1.914e-4 9.57e-5 2.8709e-4 9.57e-5 1.914e-4 0 3.8279e-4 0 2.8709e-4 0 4.7849e-4 9.57e-5 2.8709e-4 0 5.7418e-4 0 0.009283 0.001531 0.015503 0.003828 0.006316 0.002201 0.010622 0.007943 0.004306 0.00574 0.004306 0.016173 0 0.00967-0.004211 0.016269-0.004115 0.0066-0.012154 0.010048-0.008039 0.00335-0.019714 0.00335z"/>
  <path d="m0.80969 0.91238h0.01378v0.01378h-0.01378zm0 0.036939h0.01378v0.099334h-0.01378z"/>
  <path d="m0.85113 0.94932h0.01378v0.099334h-0.01378zm0.056079 0.033972q0-0.011101-0.005455-0.016938-0.005455-0.005838-0.015886-0.005838-0.01024 0-0.015599 0.005742-0.005359 0.005646-0.005359 0.016556l-0.00201-0.016651q0.004306-0.009474 0.011579-0.013972 0.007273-0.004498 0.01713-0.004498 0.014355 0 0.021819 0.009091 0.00756 0.009091 0.00756 0.026412v0.065458h-0.01378z"/>
  <path d="m0.94855 0.91238h0.01378v0.01378h-0.01378zm0 0.036939h0.01378v0.099334h-0.01378z"/>
  <path d="m0.98855 1.033h0.015694v0.015694h-0.015694z"/>
 </g>
</svg>
