<svg version="1.1" viewBox="0 0 18.143 19.078" xmlns="http://www.w3.org/2000/svg">
 <g transform="translate(-62.267 -103.08)">
  <path d="m79.275 114.22a7.9375 7.9375 0 01-7.9375 7.9375 7.9375 7.9375 0 01-7.9375-7.9375 7.9375 7.9375 0 017.9375-7.9375 7.9375 7.9375 0 017.9375 7.9375z" fill="#c00" stop-color="#000000"/>
  <path d="m64.08 103.08s7.2571 8.593 7.2571 8.593 7.2571-8.593 7.2571-8.593l-7.2575 6.1501-7.2568-6.1501z" fill="#fff"/>
  <path d="m63.173 105.81s8.1643 9.6671 8.1643 9.6671 8.1643-9.6671 8.1643-9.6671l-8.1647 6.9188-8.1639-6.9188z" fill="#fff"/>
  <path d="m62.267 108.85 9.0714 10.741 9.0714-10.741-9.0719 7.6876-9.0709-7.6876z" fill="#fff"/>
 </g>
</svg>
