<?xml version="1.0" encoding="UTF-8"?>
<svg id="svg4595" width="1.3229mm" height="1.3229mm" version="1.1" viewBox="0 0 1.3229 1.3229" xmlns="http://www.w3.org/2000/svg">
 <g id="layer1" transform="translate(-145.99 -192.86)">
  <g id="g18964" transform="matrix(.026111 0 0 .026111 145.56 181.35)">
   <g id="g7484" transform="matrix(.35278 0 0 -.35278 67.418 466.29)">
    <path id="path7486" d="m0 0c0 39.656-32.148 71.804-71.81 71.804-39.66 0-71.809-32.148-71.809-71.804 0-39.657 32.149-71.814 71.809-71.814 39.662 0 71.81 32.157 71.81 71.814" fill="#395196"/>
   </g>
   <g id="g7488" transform="matrix(.35278 0 0 -.35278 44.317 460.29)">
    <path id="path7490" d="m0 0v6.802c0 3.313 2.211 4.087 3.759 4.087h9.547v14.566l-13.144 0.058c-14.59 0-17.902-10.869-17.902-17.828v-7.685h-8.434v-17.015h8.507v-42.528h17.01v42.528h12.625l1.553 17.015z" fill="#fff"/>
   </g>
  </g>
 </g>
</svg>
