<?xml version="1.0" encoding="UTF-8"?>
<svg id="svg4595" width="1.3229mm" height="1.3229mm" version="1.1" viewBox="0 0 1.3229 1.3229" xmlns="http://www.w3.org/2000/svg">
 <defs id="defs4589">
  <clipPath id="clipPath6082">
   <path id="path6080" d="m0 304.56c0-39.706 32.194-71.898 71.897-71.898 39.707 0 71.899 32.192 71.899 71.898 0 39.719-32.192 71.913-71.899 71.913-39.703 0-71.897-32.194-71.897-71.913"/>
  </clipPath>
  <linearGradient id="linearGradient6100" x2="1" gradientTransform="matrix(-94.344 108.53 108.53 94.344 119.07 250.31)" gradientUnits="userSpaceOnUse">
   <stop id="stop6088" stop-color="#5d3fd2" offset="0"/>
   <stop id="stop6090" stop-color="#b829a9" offset=".42436"/>
   <stop id="stop6092" stop-color="#b829a9" offset=".49921"/>
   <stop id="stop6094" stop-color="#e62256" offset=".78495"/>
   <stop id="stop6096" stop-color="#e62256" offset=".82143"/>
   <stop id="stop6098" stop-color="#ffc153" offset="1"/>
  </linearGradient>
 </defs>
 <g id="layer1" transform="translate(-145.99 -192.86)">
  <g id="g18964" transform="matrix(.026111 0 0 .026111 145.56 181.35)">
   <g id="g18440" transform="matrix(.99866 0 0 .99866 463.41 320.2)">
    <g id="g6076" transform="matrix(.35278 0 0 -.35278 -447.26 253.74)">
     <g id="g6078" clip-path="url(#clipPath6082)">
      <path id="path6102" d="m0 304.56c0-39.706 32.194-71.898 71.897-71.898 39.707 0 71.899 32.192 71.899 71.898 0 39.719-32.192 71.913-71.899 71.913-39.703 0-71.897-32.194-71.897-71.913" fill="url(#linearGradient6100)"/>
     </g>
    </g>
    <g id="g19013">
     <g id="g6112" transform="matrix(.35278 0 0 -.35278 -414.64 132.88)">
      <path id="path6114" d="m0 0h1e-3zm-41.155-72.879h-1e-3z" fill="none" stroke="#fff" stroke-miterlimit="10"/>
     </g>
     <g id="g6116" transform="matrix(.35278 0 0 -.35278 -428.76 146.29)">
      <path id="path6118" d="m0 0c0 10.731 8.724 19.463 19.448 19.463s19.449-8.732 19.449-19.463c0-10.724-8.725-19.449-19.449-19.449s-19.448 8.725-19.448 19.449m19.448-25.666c14.159 0 25.677 11.514 25.677 25.666 0 14.161-11.518 25.683-25.677 25.683-14.157 0-25.676-11.522-25.676-25.683 0-14.152 11.519-25.666 25.676-25.666" fill="#fff"/>
     </g>
     <g id="g6120" transform="matrix(.35278 0 0 -.35278 -430.93 133.49)">
      <path id="path6122" d="m0 0c-6.104 0-11.072-4.967-11.072-11.071v-50.434c0-6.104 4.968-11.071 11.072-11.071h51.215c6.104 0 11.071 4.967 11.071 11.071v50.434c0 6.104-4.967 11.071-11.071 11.071zm51.215-78.937h-51.215c-9.612 0-17.432 7.821-17.432 17.432v50.434c0 9.612 7.82 17.431 17.432 17.431h51.215c9.612 0 17.431-7.819 17.431-17.431v-50.434c0-9.611-7.819-17.432-17.431-17.432" fill="#fff"/>
     </g>
     <g id="g6124" transform="matrix(.35278 0 0 -.35278 -412.71 136.2)">
      <path id="path6126" d="m0 0c-2.246 0-4.054-1.828-4.054-4.058 0-2.244 1.808-4.048 4.054-4.048 2.229 0 4.057 1.804 4.057 4.048 0 2.23-1.828 4.058-4.057 4.058" fill="#fff"/>
     </g>
    </g>
   </g>
  </g>
 </g>
</svg>
