<?xml version="1.0" encoding="UTF-8"?>
<svg version="1.1" viewBox="0 0 2.6458 1.3603" xmlns="http://www.w3.org/2000/svg">
 <g stroke-width=".020172">
  <path d="m1.3585 0.85459a0.42698 0.42698 0 0 1-0.42698 0.42698 0.42698 0.42698 0 0 1-0.42698-0.42698 0.42698 0.42698 0 0 1 0.42698-0.42698 0.42698 0.42698 0 0 1 0.42698 0.42698z" fill="#6a37e8" fill-opacity=".5" opacity=".997" stop-color="#000000" style="font-variation-settings:normal"/>
  <path d="m1.8989 0.50703a0.50702 0.50702 0 0 1-0.50702 0.50702 0.50702 0.50702 0 0 1-0.50702-0.50702 0.50702 0.50702 0 0 1 0.50702-0.50702 0.50702 0.50702 0 0 1 0.50702 0.50702z" fill="#e959dd" fill-opacity=".6" opacity=".997" stop-color="#000000" style="font-variation-settings:normal"/>
  <path d="m1.9709 1.0401a0.32023 0.32023 0 0 1-0.32023 0.32023 0.32023 0.32023 0 0 1-0.32023-0.32023 0.32023 0.32023 0 0 1 0.32023-0.32023 0.32023 0.32023 0 0 1 0.32023 0.32023z" fill="#fff345" fill-opacity=".7" opacity=".997" stop-color="#000000" style="font-variation-settings:normal"/>
 </g>
 <path d="m0.44908 0.28268a0.43967 0.43967 0 0 0-0.43716 0.43975 0.43967 0.43967 0 0 0 0.43925 0.43975 0.43967 0.43967 0 0 0 0.43613-0.38136 0.43967 0.43967 0 0 0 0.43562 0.38136 0.43967 0.43967 0 0 0 0.43613-0.38136 0.43967 0.43967 0 0 0 0.43562 0.38136 0.43967 0.43967 0 0 0 0.43925-0.43975 0.43967 0.43967 0 0 0-0.43925-0.43975 0.43967 0.43967 0 0 0-0.43613 0.38136 0.43967 0.43967 0 0 0-0.43562-0.38136 0.43967 0.43967 0 0 0-0.43613 0.38136 0.43967 0.43967 0 0 0-0.43562-0.38136 0.43967 0.43967 0 0 0-0.002066 0z" fill="#ff0000" opacity=".997" stop-color="#000000" stroke="#ff0000" stroke-width=".023266" style="font-variation-settings:normal"/>
 <path d="m0.68488 0.52783c-0.016974 0-0.02718 0.004606-0.030893 0.013429-0.001857 0.004575-0.003198 0.008694-0.003729 0.012615-2.6523e-4 0.003594-5.3178e-4 0.009168-5.3178e-4 0.016684v0.29258c0 0.007516 2.6739e-4 0.01317 5.3178e-4 0.017091 5.2905e-4 0.003595 0.001871 0.00812 0.003729 0.013022 0.003713 0.008823 0.013651 0.013022 0.03036 0.013022 0.020687 0 0.031967-0.007997 0.034088-0.024009 0.009548 0.015685 0.025926 0.023602 0.048469 0.023602 0.022544 0 0.043225-0.012763 0.06285-0.038251 0.019626-0.025815 0.029828-0.05554 0.029828-0.089524 0-0.034311-0.009936-0.064524-0.029828-0.090338-0.019626-0.025815-0.041376-0.038658-0.064981-0.038658-0.019626 0-0.034665 0.007997-0.045274 0.024009v-0.10214c0-0.007516-5.345e-4 -0.01309-0.001066-0.016684-2.6411e-4 -0.003921-0.001073-0.00812-0.003195-0.013022-0.003448-0.008823-0.013651-0.013429-0.03036-0.013429zm1.2298 0c-0.016975 0-0.027713 0.004606-0.031425 0.013429-0.00185 0.004575-0.00266 0.008694-0.0032 0.012615-2.652e-4 0.003594-5.318e-4 0.009168-5.318e-4 0.016684v0.29299c0 0.007842 2.675e-4 0.013903 5.318e-4 0.017498 5.291e-4 0.003595 0.00134 0.007713 0.0032 0.012615 0.00371 0.008823 0.014184 0.013022 0.030892 0.013022 0.016975 2e-8 0.026913-0.004119 0.03036-0.012615 0.00212-0.004901 0.00347-0.00902 0.00373-0.012615 5.317e-4 -0.003921 0.00106-0.009575 0.00106-0.017091v-0.095221c0.00106-0.008823 0.00509-0.01674 0.012251-0.023602 0.00716-0.007189 0.015219-0.01058 0.024501-0.01058 0.00955 0 0.017336 0.003471 0.023436 0.010987s0.00905 0.017936 0.00905 0.031334v0.085862c0 0.007842 2.674e-4 0.013984 5.318e-4 0.017905 5.29e-4 0.003922 0.00161 0.00812 0.00373 0.013022 0.00398 0.008496 0.014182 0.012615 0.03036 0.012615 0.016975 0 0.027445-0.004119 0.030892-0.012615 0.00212-0.004901 0.00293-0.00902 0.0032-0.012615 5.317e-4 -0.003921 0.00106-0.009575 0.00106-0.017091v-0.086269c0-0.035945-0.00886-0.066318-0.026631-0.091152-0.017506-0.024834-0.039526-0.037438-0.066048-0.037438-0.017769 0-0.033078 0.009773-0.046339 0.029706v-0.10824c0-0.007516-5.345e-4 -0.01309-0.00106-0.016684-2.651e-4 -0.003922-0.00161-0.00812-0.00373-0.013022-0.00345-0.008823-0.013119-0.013429-0.029828-0.013429zm0.38776 0.013836c-0.0069 0-0.015219 0.006542-0.024501 0.01994-0.022279 0.032024-0.051281 0.073304-0.087351 0.1233v-0.093594c0-0.011437-8.045e-4 -0.020081-0.00213-0.025637-0.00345-0.01209-0.014458-0.018312-0.033023-0.018312-0.016975 0-0.027181 0.004606-0.030893 0.013429-0.00212 0.004901-0.00373 0.009507-0.00426 0.013429-2.652e-4 0.003594 0 0.008761 0 0.016277v0.27264c0 0.011437 5.399e-4 0.020002 0.00213 0.02523 0.00318 0.012417 0.013925 0.018312 0.032491 0.018312 0.016975 0 0.027713-0.004199 0.031425-0.013022 0.00212-0.004901 0.00293-0.00902 0.0032-0.012615 5.318e-4 -0.003594 0.00106-0.009655 0.00106-0.017498v-0.095222l0.087352 0.12289c0.00955 0.013724 0.017871 0.020346 0.024501 0.020346 0.0069 0 0.01549-0.005574 0.026099-0.016684 0.010609-0.011437 0.015979-0.02113 0.015979-0.029299 0-0.008496-0.00456-0.018836-0.013316-0.030927-0.016975-0.024181-0.045709-0.060208-0.086288-0.10824l0.015979-0.018719c0.032357-0.038232 0.056522-0.068038 0.071905-0.089931 0.00795-0.011437 0.011718-0.021537 0.011718-0.029706 0-0.008496-0.00537-0.018189-0.015979-0.029299-0.010609-0.011437-0.019203-0.017091-0.026099-0.017091zm-1.9201 0.002849c-0.005304 0-0.009603 0.002102-0.013316 0.005697-0.003448 0.003268-0.006131 0.006579-0.007457 0.010173-0.001325 0.003594-0.002673 0.009168-0.004794 0.016684l-0.044208 0.1644-0.045274-0.16969c-0.001592-0.005229-0.00535-0.010642-0.011185-0.01587-0.005835-0.005555-0.012279-0.008546-0.019175-0.008546-0.006631 0-0.012268 0.001375-0.016512 0.003662-0.009813 0.005228-0.016527 0.014761-0.02024 0.028485l-0.043143 0.16114-0.043676-0.16359c-0.002652-0.010784-0.006139-0.018781-0.009587-0.024009-0.003182-0.005228-0.008016-0.008139-0.014381-0.008139-0.0061 0-0.012549 0.002023-0.02024 0.00529-0.01777 0.007516-0.026632 0.017449-0.026632 0.03052 0 0.005228 0.0013437 0.013226 0.0042611 0.024009l0.076699 0.27224 0.002663 0.007325c0.001856 0.004902 0.005349 0.009748 0.010653 0.014649 0.005569 0.004901 0.012818 0.007325 0.021305 0.007325 0.008487 0 0.015738-0.003878 0.021838-0.011394 0.002387-0.002941 0.004535-0.006172 0.006392-0.009766 0.001856-0.003595 0.003198-0.006178 0.003729-0.008139 5.3041e-4 -0.001961 0.015302-0.056405 0.044741-0.16359l0.046339 0.16888c0.001857 0.005228 0.005616 0.010722 0.011185 0.016277 0.005835 0.005228 0.012549 0.007732 0.02024 0.007732 0.007956 0 0.015203-0.002504 0.020773-0.007732 0.005835-0.005555 0.009326-0.010161 0.010653-0.013429 0.001325-0.003268 0.002133-0.005851 0.002665-0.008139l0.076165-0.27224c0.003182-0.011764 0.004794-0.019761 0.004794-0.024009 0-0.013071-0.008862-0.023491-0.026632-0.031334-0.007161-0.003268-0.013338-0.004883-0.018642-0.004882zm0.53849 0.003662c-0.01671 0-0.026915 0.004119-0.030892 0.012615-0.002118 0.004901-0.003734 0.009507-0.004261 0.013429-2.6524e-4 0.003594-5.3179e-4 0.008761-5.3179e-4 0.016277v0.27224c0 0.007842 2.6736e-4 0.013577 5.3179e-4 0.017498 5.2902e-4 0.003921 0.002143 0.008447 0.004261 0.013022 0.003977 0.008823 0.013649 0.013022 0.029828 0.013022 0.01671 0 0.027448-0.004199 0.031425-0.013022 0.002118-0.004574 0.00293-0.008613 0.003198-0.012208 5.3178e-4 -0.003921 0.001063-0.009982 0.001063-0.017498v-0.16521c0.001323 0.001961 0.009918 0.01634 0.025566 0.043134 0.015649 0.026468 0.026122 0.043918 0.031425 0.052087l0.0032 0.00529c0.00213 0.003268 0.00535 0.006985 0.01012 0.01058 0.00504 0.003268 0.010677 0.004883 0.016512 0.004883 0.0061 0 0.011474-0.002102 0.016512-0.005697 0.00531-0.003921 0.00879-0.006585 0.01012-0.008546 0.00132-0.002287 0.00347-0.006246 0.00692-0.011801s0.011771-0.019206 0.024501-0.0411c0.01273-0.02222 0.022132-0.038702 0.028762-0.048832v0.1644c0 0.011437 8.045e-4 0.020081 0.00213 0.025637 0.00132 0.004248 0.00294 0.007479 0.00532 0.009766 0.00239 0.002287 0.00614 0.004063 0.010653 0.005697 0.0045 0.001633 0.010418 0.002442 0.018109 0.002442 0.00769 0 0.014137-8.8756e-4 0.019175-0.002849 0.010078-0.003921 0.014914-0.017332 0.014914-0.039879v-0.27183c0-0.007516-2.2e-6 -0.01317-5.318e-4 -0.017091-2.651e-4 -0.003922-0.00161-0.008527-0.00373-0.013429-0.00371-0.008823-0.013919-0.013022-0.030892-0.013022-0.01671 0-0.02745 0.004199-0.031958 0.013022-0.015119 0.023527-0.044929 0.072158-0.090016 0.14568l-0.090547-0.14609-0.002135-0.002849c-0.001591-0.002287-0.005349-0.00455-0.010653-0.006511-0.00504-0.002287-0.010949-0.003255-0.018109-0.003255zm-0.39148 0.094815c-0.032357 0-0.059745 0.012603-0.081493 0.037438-0.021483 0.024508-0.031958 0.057304-0.031958 0.098477 0 0.032677 0.008325 0.062242 0.025034 0.088711 0.008487 0.013724 0.020036 0.024872 0.035154 0.033368 0.015383 0.008169 0.033104 0.012208 0.05273 0.012208 0.056491 2e-8 0.084688-0.014459 0.084688-0.043541 0-0.006209-0.001879-0.013965-0.005326-0.022788-0.0061-0.014705-0.013351-0.021974-0.021838-0.021974-0.004243 0-0.009614 0.001696-0.015979 0.00529l-0.004261 0.002036c-0.008752 0.003921-0.020836 0.006104-0.036219 0.006104-0.008752 2e-8 -0.017347-0.003151-0.026099-0.009359-0.008752-0.006209-0.013316-0.014045-0.013316-0.023195h0.094276c0.009813 2e-8 0.018675-0.004766 0.026632-0.014242 0.008222-0.009803 0.012783-0.024422 0.012783-0.044355 3e-8 -0.020261-0.004831-0.039165-0.013848-0.056157-0.017239-0.032024-0.044095-0.048018-0.08096-0.048018zm1.0557 0.003255c-0.0061 0-0.013084 0.002583-0.021305 0.008139-0.00822 0.005555-0.01386 0.010161-0.016512 0.013429-0.00239 0.003268-4e-3 0.005851-0.00532 0.008139 0-0.005555-0.00187-0.011049-0.0048-0.016277-0.00398-0.007516-0.013915-0.010987-0.029828-0.010987-0.016974 0-0.027181 0.004199-0.030892 0.013022-0.00186 0.004575-0.0032 0.008694-0.00373 0.012615-2.652e-4 0.003594 0 0.009168 0 0.016684v0.18637c5.292e-4 0.009477 0.00268 0.016586 0.00692 0.02116 0.00557 0.005555 0.014967 0.008138 0.027697 0.008138 0.01671 2e-8 0.026915-0.004119 0.030892-0.012615 0.00212-0.004901 0.00347-0.00902 0.00373-0.012615 5.318e-4 -0.003921 5.318e-4 -0.009575 5.318e-4 -0.017091v-0.10295c0-0.008823 0.00295-0.01658 0.00905-0.022788 0.00636-0.006209 0.01308-0.009359 0.02024-0.009359 0.00716-2e-8 0.013335 0.001454 0.017577 0.004069 0.00451 0.002614 0.00908 0.004069 0.013848 0.004069 0.00955 0 0.0168-0.006301 0.021838-0.018719 0.00504-0.012417 0.00746-0.023725 0.00746-0.034182 0-0.010457-0.00188-0.018213-0.00532-0.022788-0.00318-0.004902-0.00722-0.008213-0.012251-0.010173-0.00504-0.001961-0.00961-0.003416-0.013848-0.004069-0.00424-9.7924e-4 -0.00961-0.001221-0.015979-0.001221zm-0.31851 0.001627c-0.016975-2e-8 -0.027181 0.004606-0.030892 0.013429-0.00185 0.004901-0.0032 0.00902-0.00373 0.012615-2.652e-4 0.003594-5.318e-4 0.009249-5.318e-4 0.017091v0.085862c0 0.035945 0.00859 0.066398 0.026099 0.091559 0.017769 0.024834 0.040325 0.037438 0.067112 0.037438 0.010609 0 0.020277-0.003798 0.029295-0.010987 0.00345-0.002941 0.00694-0.006332 0.010653-0.01058 0.00371-0.004248 0.0064-0.007479 0.00746-0.009766 1e-7 0.007842 0.00108 0.014384 0.00373 0.01994 0.00372 0.007842 0.013649 0.011801 0.029828 0.011801 0.016444 0 0.026915-0.004119 0.030892-0.012615 0.00212-0.004574 0.00293-0.008613 0.0032-0.012208 5.317e-4 -0.003921 0.00106-0.009495 0.00106-0.016684v-0.17376c0-0.007516-5.346e-4 -0.01309-0.00106-0.016684-2.652e-4 -0.003922-0.00134-0.00812-0.0032-0.013022-0.00371-0.008823-0.013651-0.013429-0.03036-0.013429-0.016975-2e-8 -0.027446 0.004526-0.030892 0.013022-0.00212 0.004901-0.0032 0.0091-0.00373 0.013022-2.652e-4 0.003594-5.318e-4 0.009168-5.318e-4 0.016684v0.086676c0 0.012744-0.00295 0.023084-0.00959 0.030927-0.00636 0.007842-0.014958 0.011801-0.025567 0.011801-0.010343 0-0.018668-0.003878-0.025034-0.011394-0.0061-0.007516-0.00905-0.017936-0.00905-0.031334v-0.085455c0-0.011437-0.00107-0.020002-0.00266-0.02523-0.00318-0.012417-0.013925-0.018719-0.032491-0.018719zm1.1308 0c-0.016975-2e-8 -0.027181 0.004606-0.030893 0.013429-0.00185 0.004901-0.0032 0.00902-0.00373 0.012615-2.652e-4 0.003594 0 0.009249 0 0.017091v0.085862c0 0.035945 0.00859 0.066398 0.026099 0.091559 0.017769 0.024834 0.039792 0.037438 0.066579 0.037438 0.010609 0 0.02081-0.003798 0.029828-0.010987 0.00345-0.002941 0.00694-0.006332 0.010653-0.01058 0.00371-0.004248 0.00586-0.007479 0.00692-0.009766 0 0.007842 0.00161 0.014384 0.00426 0.01994 0.00372 0.007842 0.013649 0.011801 0.029828 0.011801 0.016444 0 0.026383-0.004119 0.03036-0.012615 0.00212-0.004574 0.00347-0.008613 0.00373-0.012208 5.317e-4 -0.003921 5.317e-4 -0.009495 5.317e-4 -0.016684v-0.17376c0-0.007516-2.2e-6 -0.01309-5.317e-4 -0.016684-2.652e-4 -0.003922-0.00134-0.00812-0.0032-0.013022-0.00371-0.008823-0.014184-0.013429-0.030892-0.013429-0.016975-2e-8 -0.026913 0.004526-0.03036 0.013022-0.00212 0.004901-0.00373 0.0091-0.00426 0.013022-2.652e-4 0.003594 0 0.009168 0 0.016684v0.086676c0 0.012744-0.00349 0.023084-0.010119 0.030927-0.00636 0.007842-0.014958 0.011801-0.025567 0.011801-0.010344 0-0.018668-0.003878-0.025034-0.011394-0.0061-0.007516-0.00905-0.017936-0.00905-0.031334v-0.085455c0-0.011437-5.399e-4 -0.020002-0.00213-0.02523-0.00318-0.012417-0.014458-0.018719-0.033023-0.018719zm-0.58749 8.1439e-4c-0.019362 0-0.029834 0.008965-0.031425 0.027264-0.00186-0.003267-0.00401-0.006498-0.00692-0.009766-0.00291-0.003594-0.00802-0.007473-0.015446-0.011394-0.00743-0.003921-0.016017-0.005697-0.025034-0.005697-0.023605 0-0.04509 0.012844-0.064981 0.038658-0.019626 0.025488-0.029828 0.055214-0.029828 0.089524 0 0.033984 0.010201 0.064117 0.029828 0.089931 0.019626 0.025815 0.040574 0.038658 0.063383 0.038658 0.023074 0 0.039721-0.008725 0.049535-0.026044 7.963e-4 0.008496 0.00375 0.014958 0.00852 0.019533 0.00504 0.004248 0.014441 0.006511 0.028762 0.006511 0.014588 0 0.023985-0.004119 0.027697-0.012615 0.00186-0.004901 0.00293-0.009427 0.0032-0.013022 5.318e-4 -0.003921 5.318e-4 -0.009575 5.318e-4 -0.017091v-0.17132c0-0.007516-2.3e-6 -0.01309-5.318e-4 -0.016684-2.651e-4 -0.003922-0.00161-0.008527-0.00373-0.013429-0.00186-0.004902-0.00562-0.008213-0.010653-0.010173-0.00504-0.001961-0.012559-0.002849-0.022903-0.002849zm-1.2815 0.072026c0.008752 0 0.015198 0.002343 0.019708 0.006918 0.004774 0.004575 0.006924 0.010389 0.006924 0.017905 0 0.010457-0.004836 0.01587-0.014914 0.01587h-0.050068c2e-8 -0.009803 0.004296-0.019175 0.012783-0.027671 0.008487-0.008823 0.017079-0.013022 0.025567-0.013022zm1.2128 0.013429c0.010609 0 0.018934 0.004686 0.025034 0.013836 0.00636 0.00915 0.00959 0.01933 0.00959 0.030113 0 0.010457-0.00349 0.020069-0.01012 0.028892-0.00636 0.008823-0.014155 0.013022-0.023968 0.013022-0.00981 0-0.018138-0.004119-0.025034-0.012615-0.0069-0.008823-0.010653-0.018516-0.010653-0.029299-6e-7 -0.010784 0.00322-0.020963 0.00959-0.030113 0.00663-0.00915 0.015223-0.013836 0.025567-0.013836zm-0.98643 8.1464e-4c0.010609 0 0.019201 0.004279 0.025566 0.013429 0.006366 0.008823 0.009587 0.018922 0.009587 0.029706s-0.003225 0.020476-0.01012 0.029299c-0.006896 0.008823-0.015221 0.013022-0.025034 0.013022-0.009813 0-0.018403-0.004199-0.025034-0.013022-0.006366-0.008823-0.009587-0.018435-0.009587-0.028892 0-0.010784 0.002955-0.020963 0.009055-0.030113 0.006366-0.00915 0.014958-0.013429 0.025566-0.013429z" fill="#ffffff" stroke-width=".01104"/>
</svg>
