<svg version="1.1" viewBox="0 0 2.6458 1.3603" xmlns="http://www.w3.org/2000/svg">
 <path d="m1.3585.85459a.42698.42698 0 01-.42698.42698.42698.42698 0 01-.42698-.42698.42698.42698 0 01.42698-.42698.42698.42698 0 01.42698.42698z" fill="#6a37e8" fill-opacity=".5" opacity=".997" stop-color="#000000" style="fill-opacity:1;fill:#7de0f9;font-variation-settings:normal;stroke-width:.020172"/>
 <path d="m1.8989.50703a.50702.50702 0 01-.50702.50702.50702.50702 0 01-.50702-.50702.50702.50702 0 01.50702-.50702.50702.50702 0 01.50702.50702z" fill="#e959dd" fill-opacity=".6" opacity=".997" stop-color="#000000" style="fill-opacity:1;fill:#ff98f7;font-variation-settings:normal;stroke-width:.020172"/>
 <path d="m1.9709 1.0401a.32023.32023 0 01-.32023.32023.32023.32023 0 01-.32023-.32023.32023.32023 0 01.32023-.32023.32023.32023 0 01.32023.32023z" fill="#fff345" fill-opacity=".7" opacity=".997" stop-color="#000000" style="fill-opacity:1;fill:#fff890;font-variation-settings:normal;stroke-width:.020172"/>
 <path d="m.44908.28268a.43967.43967 0 00-.43716.43975.43967.43967 0 00.43925.43975.43967.43967 0 00.43613-.38136.43967.43967 0 00.43562.38136.43967.43967 0 00.43613-.38136.43967.43967 0 00.43562.38136.43967.43967 0 00.43925-.43975.43967.43967 0 00-.43925-.43975.43967.43967 0 00-.43613.38136.43967.43967 0 00-.43562-.38136.43967.43967 0 00-.43613.38136.43967.43967 0 00-.43562-.38136.43967.43967 0 00-.002066 0z" fill="#ff0000" opacity=".997" stop-color="#000000" stroke="#ff0000" stroke-width=".023266" style="font-variation-settings:normal"/>
 <path d="m.68488.52783c-.016974 0-.02718.004606-.030893.013429-.001857.004575-.003198.008694-.003729.012615-.00026523.003594-.00053178.009168-.00053178.016684v.29258c0 .007516.00026739.01317.00053178.017091.00052905.003595.001871.00812.003729.013022.003713.008823.013651.013022.03036.013022.020687 0 .031967-.007997.034088-.024009.009548.015685.025926.023602.048469.023602.022544 0 .043225-.012763.06285-.038251.019626-.025815.029828-.05554.029828-.089524 0-.034311-.009936-.064524-.029828-.090338-.019626-.025815-.041376-.038658-.064981-.038658-.019626 0-.034665.007997-.045274.024009v-.10214c0-.007516-.0005345-.01309-.001066-.016684-.00026411-.003921-.001073-.00812-.003195-.013022-.003448-.008823-.013651-.013429-.03036-.013429zm1.2298 0c-.016975 0-.027713.004606-.031425.013429-.00185.004575-.00266.008694-.0032.012615-.0002652.003594-.0005318.009168-.0005318.016684v.29299c0 .007842.0002675.013903.0005318.017498.0005291.003595.00134.007713.0032.012615.00371.008823.014184.013022.030892.013022.016975 2e-8.026913-.004119.03036-.012615.00212-.004901.00347-.00902.00373-.012615.0005317-.003921.00106-.009575.00106-.017091v-.095221c.00106-.008823.00509-.01674.012251-.023602.00716-.007189.015219-.01058.024501-.01058.00955 0 .017336.003471.023436.010987s.00905.017936.00905.031334v.085862c0 .007842.0002674.013984.0005318.017905.000529.003922.00161.00812.00373.013022.00398.008496.014182.012615.03036.012615.016975 0 .027445-.004119.030892-.012615.00212-.004901.00293-.00902.0032-.012615.0005317-.003921.00106-.009575.00106-.017091v-.086269c0-.035945-.00886-.066318-.026631-.091152-.017506-.024834-.039526-.037438-.066048-.037438-.017769 0-.033078.009773-.046339.029706v-.10824c0-.007516-.0005345-.01309-.00106-.016684-.0002651-.003922-.00161-.00812-.00373-.013022-.00345-.008823-.013119-.013429-.029828-.013429zm.38776.013836c-.0069 0-.015219.006542-.024501.01994-.022279.032024-.051281.073304-.087351.1233v-.093594c0-.011437-.0008045-.020081-.00213-.025637-.00345-.01209-.014458-.018312-.033023-.018312-.016975 0-.027181.004606-.030893.013429-.00212.004901-.00373.009507-.00426.013429-.0002652.003594 0 .008761 0 .016277v.27264c0 .011437.0005399.020002.00213.02523.00318.012417.013925.018312.032491.018312.016975 0 .027713-.004199.031425-.013022.00212-.004901.00293-.00902.0032-.012615.0005318-.003594.00106-.009655.00106-.017498v-.095222l.087352.12289c.00955.013724.017871.020346.024501.020346.0069 0 .01549-.005574.026099-.016684.010609-.011437.015979-.02113.015979-.029299 0-.008496-.00456-.018836-.013316-.030927-.016975-.024181-.045709-.060208-.086288-.10824l.015979-.018719c.032357-.038232.056522-.068038.071905-.089931.00795-.011437.011718-.021537.011718-.029706 0-.008496-.00537-.018189-.015979-.029299-.010609-.011437-.019203-.017091-.026099-.017091zm-1.9201.002849c-.005304 0-.009603.002102-.013316.005697-.003448.003268-.006131.006579-.007457.010173-.001325.003594-.002673.009168-.004794.016684l-.044208.1644-.045274-.16969c-.001592-.005229-.00535-.010642-.011185-.01587-.005835-.005555-.012279-.008546-.019175-.008546-.006631 0-.012268.001375-.016512.003662-.009813.005228-.016527.014761-.02024.028485l-.043143.16114-.043676-.16359c-.002652-.010784-.006139-.018781-.009587-.024009-.003182-.005228-.008016-.008139-.014381-.008139-.0061 0-.012549.002023-.02024.00529-.01777.007516-.026632.017449-.026632.03052 0 .005228.0013437.013226.0042611.024009l.076699.27224.002663.007325c.001856.004902.005349.009748.010653.014649.005569.004901.012818.007325.021305.007325s.015738-.003878.021838-.011394c.002387-.002941.004535-.006172.006392-.009766.001856-.003595.003198-.006178.003729-.008139.00053041-.001961.015302-.056405.044741-.16359l.046339.16888c.001857.005228.005616.010722.011185.016277.005835.005228.012549.007732.02024.007732.007956 0 .015203-.002504.020773-.007732.005835-.005555.009326-.010161.010653-.013429.001325-.003268.002133-.005851.002665-.008139l.076165-.27224c.003182-.011764.004794-.019761.004794-.024009 0-.013071-.008862-.023491-.026632-.031334-.007161-.003268-.013338-.004883-.018642-.004882zm.53849.003662c-.01671 0-.026915.004119-.030892.012615-.002118.004901-.003734.009507-.004261.013429-.00026524.003594-.00053179.008761-.00053179.016277v.27224c0 .007842.00026736.013577.00053179.017498.00052902.003921.002143.008447.004261.013022.003977.008823.013649.013022.029828.013022.01671 0 .027448-.004199.031425-.013022.002118-.004574.00293-.008613.003198-.012208.00053178-.003921.001063-.009982.001063-.017498v-.16521c.001323.001961.009918.01634.025566.043134.015649.026468.026122.043918.031425.052087l.0032.00529c.00213.003268.00535.006985.01012.01058.00504.003268.010677.004883.016512.004883.0061 0 .011474-.002102.016512-.005697.00531-.003921.00879-.006585.01012-.008546.00132-.002287.00347-.006246.00692-.011801s.011771-.019206.024501-.0411c.01273-.02222.022132-.038702.028762-.048832v.1644c0 .011437.0008045.020081.00213.025637.00132.004248.00294.007479.00532.009766.00239.002287.00614.004063.010653.005697.0045.001633.010418.002442.018109.002442.00769 0 .014137-.00088756.019175-.002849.010078-.003921.014914-.017332.014914-.039879v-.27183c0-.007516-2.2e-6-.01317-.0005318-.017091-.0002651-.003922-.00161-.008527-.00373-.013429-.00371-.008823-.013919-.013022-.030892-.013022-.01671 0-.02745.004199-.031958.013022-.015119.023527-.044929.072158-.090016.14568l-.090547-.14609-.002135-.002849c-.001591-.002287-.005349-.00455-.010653-.006511-.00504-.002287-.010949-.003255-.018109-.003255zm-.39148.094815c-.032357 0-.059745.012603-.081493.037438-.021483.024508-.031958.057304-.031958.098477 0 .032677.008325.062242.025034.088711.008487.013724.020036.024872.035154.033368.015383.008169.033104.012208.05273.012208.056491 2e-8.084688-.014459.084688-.043541 0-.006209-.001879-.013965-.005326-.022788-.0061-.014705-.013351-.021974-.021838-.021974-.004243 0-.009614.001696-.015979.00529l-.004261.002036c-.008752.003921-.020836.006104-.036219.006104-.008752 2e-8-.017347-.003151-.026099-.009359-.008752-.006209-.013316-.014045-.013316-.023195h.094276c.009813 2e-8.018675-.004766.026632-.014242.008222-.009803.012783-.024422.012783-.044355 3e-8-.020261-.004831-.039165-.013848-.056157-.017239-.032024-.044095-.048018-.08096-.048018zm1.0557.003255c-.0061 0-.013084.002583-.021305.008139-.00822.005555-.01386.010161-.016512.013429-.00239.003268-.004.005851-.00532.008139 0-.005555-.00187-.011049-.0048-.016277-.00398-.007516-.013915-.010987-.029828-.010987-.016974 0-.027181.004199-.030892.013022-.00186.004575-.0032.008694-.00373.012615-.0002652.003594 0 .009168 0 .016684v.18637c.0005292.009477.00268.016586.00692.02116.00557.005555.014967.008138.027697.008138.01671 2e-8.026915-.004119.030892-.012615.00212-.004901.00347-.00902.00373-.012615.0005318-.003921.0005318-.009575.0005318-.017091v-.10295c0-.008823.00295-.01658.00905-.022788.00636-.006209.01308-.009359.02024-.009359.00716-2e-8.013335.001454.017577.004069.00451.002614.00908.004069.013848.004069.00955 0 .0168-.006301.021838-.018719.00504-.012417.00746-.023725.00746-.034182s-.00188-.018213-.00532-.022788c-.00318-.004902-.00722-.008213-.012251-.010173-.00504-.001961-.00961-.003416-.013848-.004069-.00424-.00097924-.00961-.001221-.015979-.001221zm-.31851.001627c-.016975-2e-8-.027181.004606-.030892.013429-.00185.004901-.0032.00902-.00373.012615-.0002652.003594-.0005318.009249-.0005318.017091v.085862c0 .035945.00859.066398.026099.091559.017769.024834.040325.037438.067112.037438.010609 0 .020277-.003798.029295-.010987.00345-.002941.00694-.006332.010653-.01058.00371-.004248.0064-.007479.00746-.009766 1e-7.007842.00108.014384.00373.01994.00372.007842.013649.011801.029828.011801.016444 0 .026915-.004119.030892-.012615.00212-.004574.00293-.008613.0032-.012208.0005317-.003921.00106-.009495.00106-.016684v-.17376c0-.007516-.0005346-.01309-.00106-.016684-.0002652-.003922-.00134-.00812-.0032-.013022-.00371-.008823-.013651-.013429-.03036-.013429-.016975-2e-8-.027446.004526-.030892.013022-.00212.004901-.0032.0091-.00373.013022-.0002652.003594-.0005318.009168-.0005318.016684v.086676c0 .012744-.00295.023084-.00959.030927-.00636.007842-.014958.011801-.025567.011801-.010343 0-.018668-.003878-.025034-.011394-.0061-.007516-.00905-.017936-.00905-.031334v-.085455c0-.011437-.00107-.020002-.00266-.02523-.00318-.012417-.013925-.018719-.032491-.018719zm1.1308 0c-.016975-2e-8-.027181.004606-.030893.013429-.00185.004901-.0032.00902-.00373.012615-.0002652.003594 0 .009249 0 .017091v.085862c0 .035945.00859.066398.026099.091559.017769.024834.039792.037438.066579.037438.010609 0 .02081-.003798.029828-.010987.00345-.002941.00694-.006332.010653-.01058.00371-.004248.00586-.007479.00692-.009766 0 .007842.00161.014384.00426.01994.00372.007842.013649.011801.029828.011801.016444 0 .026383-.004119.03036-.012615.00212-.004574.00347-.008613.00373-.012208.0005317-.003921.0005317-.009495.0005317-.016684v-.17376c0-.007516-2.2e-6-.01309-.0005317-.016684-.0002652-.003922-.00134-.00812-.0032-.013022-.00371-.008823-.014184-.013429-.030892-.013429-.016975-2e-8-.026913.004526-.03036.013022-.00212.004901-.00373.0091-.00426.013022-.0002652.003594 0 .009168 0 .016684v.086676c0 .012744-.00349.023084-.010119.030927-.00636.007842-.014958.011801-.025567.011801-.010344 0-.018668-.003878-.025034-.011394-.0061-.007516-.00905-.017936-.00905-.031334v-.085455c0-.011437-.0005399-.020002-.00213-.02523-.00318-.012417-.014458-.018719-.033023-.018719zm-.58749.00081439c-.019362 0-.029834.008965-.031425.027264-.00186-.003267-.00401-.006498-.00692-.009766-.00291-.003594-.00802-.007473-.015446-.011394-.00743-.003921-.016017-.005697-.025034-.005697-.023605 0-.04509.012844-.064981.038658-.019626.025488-.029828.055214-.029828.089524 0 .033984.010201.064117.029828.089931.019626.025815.040574.038658.063383.038658.023074 0 .039721-.008725.049535-.026044.0007963.008496.00375.014958.00852.019533.00504.004248.014441.006511.028762.006511.014588 0 .023985-.004119.027697-.012615.00186-.004901.00293-.009427.0032-.013022.0005318-.003921.0005318-.009575.0005318-.017091v-.17132c0-.007516-2.3e-6-.01309-.0005318-.016684-.0002651-.003922-.00161-.008527-.00373-.013429-.00186-.004902-.00562-.008213-.010653-.010173-.00504-.001961-.012559-.002849-.022903-.002849zm-1.2815.072026c.008752 0 .015198.002343.019708.006918.004774.004575.006924.010389.006924.017905 0 .010457-.004836.01587-.014914.01587h-.050068c2e-8-.009803.004296-.019175.012783-.027671.008487-.008823.017079-.013022.025567-.013022zm1.2128.013429c.010609 0 .018934.004686.025034.013836.00636.00915.00959.01933.00959.030113 0 .010457-.00349.020069-.01012.028892-.00636.008823-.014155.013022-.023968.013022-.00981 0-.018138-.004119-.025034-.012615-.0069-.008823-.010653-.018516-.010653-.029299-6e-7-.010784.00322-.020963.00959-.030113.00663-.00915.015223-.013836.025567-.013836zm-.98643.00081464c.010609 0 .019201.004279.025566.013429.006366.008823.009587.018922.009587.029706s-.003225.020476-.01012.029299c-.006896.008823-.015221.013022-.025034.013022s-.018403-.004199-.025034-.013022c-.006366-.008823-.009587-.018435-.009587-.028892 0-.010784.002955-.020963.009055-.030113.006366-.00915.014958-.013429.025566-.013429z" fill="#ffffff" stroke-width=".01104"/>
</svg>
