<?xml version="1.0" encoding="UTF-8"?>
<svg id="svg4595" width="1.3229mm" height="1.3229mm" version="1.1" viewBox="0 0 1.3229 1.3229" xmlns="http://www.w3.org/2000/svg">
 <g id="layer1" transform="translate(-145.99 -192.86)">
  <g id="g18964" transform="matrix(.026111 0 0 .026111 145.56 181.35)">
   <g id="g4546" transform="matrix(.098955 0 0 .098955 16.753 440.96)">
    <circle id="circle4488" cx="256" cy="256" r="256" fill="#2196f3"/>
    <path id="path4490" d="m373.17 306.44c-24.548 0-47.957-5.3476-69.547-15.9-3.3849-1.6213-7.3102-1.8773-10.894-0.65423-3.584 1.2516-6.5138 3.8684-8.1636 7.2533l-10.24 21.191c-30.72-17.636-56.206-43.15-73.87-73.87l21.22-10.24c3.4133-1.6498 6.0018-4.5796 7.2533-8.1636 1.2231-3.584 0.99556-7.5093-0.65422-10.894-10.581-21.561-15.929-44.971-15.929-69.547 0-7.8507-6.3716-14.222-14.222-14.222h-52.508c-7.8507 0-14.222 6.3716-14.222 14.222 0 133.32 108.46 241.78 241.78 241.78 7.8507 0 14.222-6.3716 14.222-14.222v-52.508c0-7.8507-6.3716-14.222-14.222-14.222z" fill="#fafafa" stroke-width=".88889"/>
   </g>
  </g>
 </g>
</svg>
