<?xml version="1.0" encoding="UTF-8"?>
<svg id="svg4595" width="1.3229mm" height="1.3229mm" version="1.1" viewBox="0 0 1.3229 1.3229" xmlns="http://www.w3.org/2000/svg">
 <g id="layer1" transform="translate(-145.99 -192.86)">
  <g id="g18964" transform="matrix(.026111 0 0 .026111 145.56 181.35)">
   <g id="g7484" transform="matrix(.35278 0 0 -.35278 67.418 466.29)">
    <g id="g18972" transform="matrix(2.8346 0 0 -2.8346 -411.73 1321.8)">
     <g id="g3346" transform="matrix(.35278 0 0 -.35278 145.25 466.3)">
      <path id="path3348" d="m0 0c0 39.656-32.15 71.809-71.806 71.809-39.666 0-71.814-32.153-71.814-71.809 0-39.661 32.148-71.81 71.814-71.81 39.656 0 71.806 32.149 71.806 71.81" fill="#00b456"/>
     </g>
     <g id="g19056">
      <g id="g3350" transform="matrix(.35278 0 0 -.35278 110.09 471.27)">
       <path id="path3352" d="m0 0c-3.803 5.625-5.806 12.153-5.806 18.962 0 1.089 0.054 2.173 0.165 3.313 1.711 17.595 16.445 30.863 34.272 30.863 17.871 0 32.95-13.838 34.33-31.502 0.079-1.039 0.116-1.887 0.116-2.669 0-18.845-15.452-34.177-34.446-34.177-5.066 0-10.015 1.1-14.549 3.209-1.265 0.589-3.665 2.023-4.424 2.481-0.154 0.093-0.334 0.111-0.506 0.057l-11.632-3.701c-0.268-0.085-0.517 0.17-0.427 0.435l3.759 11.079c0.065 0.191 0.034 0.4-0.084 0.565-0.228 0.317-0.604 0.843-0.768 1.085m71.028 20.027c-0.585 23.006-19.207 41.027-42.397 41.027-22.773 0-41.382-17.673-42.367-40.233-0.03-0.617-0.049-1.237-0.049-1.859 0-7.487 1.997-14.815 5.782-21.229 0.09-0.153 0.11-0.337 0.053-0.506l-7.513-22.196c-0.102-0.302 0.182-0.592 0.486-0.495l23.113 7.351c0.157 0.05 0.327 0.033 0.472-0.044 6.139-3.262 13.05-4.984 20.023-4.984 23.389 0 42.417 18.887 42.417 42.103 0 0.306-0.02 1.065-0.02 1.065" fill="#fff"/>
      </g>
      <g id="g3354" transform="matrix(.35278 0 0 -.35278 127.3 467.88)">
       <path id="path3356" d="m0 0c-0.266 0.422-2.095 1.302-2.095 1.302-0.721 0.358-6.034 2.96-7.032 3.318-0.855 0.307-1.823 0.655-2.689-0.637-0.663-0.976-2.591-3.229-3.219-3.94-0.442-0.501-0.845-0.665-1.822-0.176-0.164 0.079-4.895 2.102-8.159 4.988-2.895 2.557-4.901 5.717-5.629 6.958-0.448 0.757-0.156 1.109 0.397 1.663 0.341 0.332 1.839 2.145 1.958 2.319 0.239 0.364 0.665 1.237 0.665 1.237 0.432 0.852 0.163 1.595-0.078 2.084-0.173 0.338-2.897 6.897-3.156 7.514-0.777 1.854-1.606 1.95-2.398 1.905-0.386-0.028-3.991-0.056-5.139-1.302l-0.202-0.214c-1.128-1.193-3.473-3.673-3.473-8.474 0-1.104 0.177-2.265 0.541-3.552 0.67-2.314 1.979-4.846 3.71-7.161 0.038-0.049 2.675-3.711 3.994-5.23 4.171-4.803 8.883-8.35 13.636-10.207 6.073-2.374 8.666-2.916 10.137-2.916 0.645 0 2 0.328 2.294 0.355 1.855 0.166 6.267 2.464 7.192 5.045 0.877 2.44 0.894 4.573 0.567 5.121" fill="#fff"/>
      </g>
     </g>
    </g>
   </g>
  </g>
 </g>
</svg>
